%TF.GenerationSoftware,KiCad,Pcbnew,10.0.5*%
%TF.CreationDate,2026-08-02T12:30:57+05:30*%
%TF.ProjectId,first_pcb,66697273-745f-4706-9362-2e6b69636164,rev?*%
%TF.SameCoordinates,Original*%
%TF.FileFunction,Copper,L1,Top*%
%TF.FilePolarity,Positive*%
%FSLAX46Y46*%
G04 Gerber Fmt 4.6, Leading zero omitted, Abs format (unit mm)*
G04 Created by KiCad (PCBNEW 10.0.5) date 2026-08-02 12:30:57*
%MOMM*%
%LPD*%
G01*
G04 APERTURE LIST*
%TA.AperFunction,ComponentPad*%
%ADD10R,1.800000X1.800000*%
%TD*%
%TA.AperFunction,ComponentPad*%
%ADD11C,1.800000*%
%TD*%
%TA.AperFunction,ComponentPad*%
%ADD12R,1.700000X1.700000*%
%TD*%
%TA.AperFunction,ComponentPad*%
%ADD13C,1.700000*%
%TD*%
%TA.AperFunction,ComponentPad*%
%ADD14C,1.600000*%
%TD*%
%TA.AperFunction,Conductor*%
%ADD15C,0.200000*%
%TD*%
G04 APERTURE END LIST*
D10*
%TO.P,D1,1,K_1*%
%TO.N,GND*%
X91730000Y-91000000D03*
D11*
%TO.P,D1,2,A_2*%
%TO.N,Net-(D1-A)*%
X94270000Y-91000000D03*
%TD*%
D12*
%TO.P,J1,1,Pin_1_1*%
%TO.N,+5V*%
X92500000Y-70725000D03*
D13*
%TO.P,J1,2,Pin_2_2*%
%TO.N,GND*%
X92500000Y-73265000D03*
%TD*%
D14*
%TO.P,R1,1*%
%TO.N,+5V*%
X88690000Y-80500000D03*
%TO.P,R1,2*%
%TO.N,Net-(D1-A)*%
X96310000Y-80500000D03*
%TD*%
%TO.N,Net-(D1-A)*%
D15*
X96310000Y-88960000D02*
X94270000Y-91000000D01*
X96310000Y-80500000D02*
X96310000Y-88960000D01*
%TO.N,+5V*%
X88690000Y-74535000D02*
X92500000Y-70725000D01*
X88690000Y-80500000D02*
X88690000Y-74535000D01*
%TO.N,GND*%
X91730000Y-91000000D02*
X91730000Y-74035000D01*
X91730000Y-74035000D02*
X92500000Y-73265000D01*
%TD*%
%TA.AperFunction,Conductor*%
%TO.N,GND*%
G36*
X99944798Y-65019685D02*
G01*
X99990553Y-65072489D01*
X100001746Y-65122229D01*
X100498137Y-99869655D01*
X100479412Y-99936969D01*
X100427267Y-99983473D01*
X100369724Y-99995347D01*
X86619574Y-99504270D01*
X86553280Y-99482205D01*
X86509439Y-99427802D01*
X86500000Y-99380349D01*
X86500000Y-90052155D01*
X90330000Y-90052155D01*
X90330000Y-90750000D01*
X91354722Y-90750000D01*
X91310667Y-90826306D01*
X91280000Y-90940756D01*
X91280000Y-91059244D01*
X91310667Y-91173694D01*
X91354722Y-91250000D01*
X90330000Y-91250000D01*
X90330000Y-91947844D01*
X90336401Y-92007372D01*
X90336403Y-92007379D01*
X90386645Y-92142086D01*
X90386649Y-92142093D01*
X90472809Y-92257187D01*
X90472812Y-92257190D01*
X90587906Y-92343350D01*
X90587913Y-92343354D01*
X90722620Y-92393596D01*
X90722627Y-92393598D01*
X90782155Y-92399999D01*
X90782172Y-92400000D01*
X91480000Y-92400000D01*
X91480000Y-91375277D01*
X91556306Y-91419333D01*
X91670756Y-91450000D01*
X91789244Y-91450000D01*
X91903694Y-91419333D01*
X91980000Y-91375277D01*
X91980000Y-92400000D01*
X92677828Y-92400000D01*
X92677844Y-92399999D01*
X92737372Y-92393598D01*
X92737379Y-92393596D01*
X92872086Y-92343354D01*
X92872093Y-92343350D01*
X92987187Y-92257190D01*
X92987190Y-92257187D01*
X93073350Y-92142093D01*
X93073354Y-92142086D01*
X93103213Y-92062031D01*
X93145084Y-92006097D01*
X93210548Y-91981680D01*
X93278821Y-91996531D01*
X93307076Y-92017683D01*
X93357636Y-92068243D01*
X93357641Y-92068247D01*
X93513192Y-92181260D01*
X93535978Y-92197815D01*
X93652501Y-92257187D01*
X93732393Y-92297895D01*
X93732396Y-92297896D01*
X93837221Y-92331955D01*
X93942049Y-92366015D01*
X94159778Y-92400500D01*
X94159779Y-92400500D01*
X94380221Y-92400500D01*
X94380222Y-92400500D01*
X94597951Y-92366015D01*
X94807606Y-92297895D01*
X95004022Y-92197815D01*
X95182365Y-92068242D01*
X95338242Y-91912365D01*
X95467815Y-91734022D01*
X95567895Y-91537606D01*
X95636015Y-91327951D01*
X95670500Y-91110222D01*
X95670500Y-90889778D01*
X95636015Y-90672049D01*
X95613188Y-90601794D01*
X95611193Y-90531953D01*
X95643436Y-90475797D01*
X96790520Y-89328716D01*
X96869577Y-89191784D01*
X96910501Y-89039057D01*
X96910501Y-88880942D01*
X96910501Y-88873347D01*
X96910500Y-88873329D01*
X96910500Y-81729601D01*
X96930185Y-81662562D01*
X96978206Y-81619116D01*
X96991610Y-81612287D01*
X97157219Y-81491966D01*
X97301966Y-81347219D01*
X97301968Y-81347215D01*
X97301971Y-81347213D01*
X97354732Y-81274590D01*
X97422287Y-81181610D01*
X97515220Y-80999219D01*
X97578477Y-80804534D01*
X97610500Y-80602352D01*
X97610500Y-80397648D01*
X97578477Y-80195466D01*
X97515220Y-80000781D01*
X97515218Y-80000778D01*
X97515218Y-80000776D01*
X97481503Y-79934607D01*
X97422287Y-79818390D01*
X97414556Y-79807749D01*
X97301971Y-79652786D01*
X97157213Y-79508028D01*
X96991613Y-79387715D01*
X96991612Y-79387714D01*
X96991610Y-79387713D01*
X96934653Y-79358691D01*
X96809223Y-79294781D01*
X96614534Y-79231522D01*
X96439995Y-79203878D01*
X96412352Y-79199500D01*
X96207648Y-79199500D01*
X96183329Y-79203351D01*
X96005465Y-79231522D01*
X95810776Y-79294781D01*
X95628386Y-79387715D01*
X95462786Y-79508028D01*
X95318028Y-79652786D01*
X95197715Y-79818386D01*
X95104781Y-80000776D01*
X95041522Y-80195465D01*
X95009500Y-80397648D01*
X95009500Y-80602351D01*
X95041522Y-80804534D01*
X95104781Y-80999223D01*
X95197715Y-81181613D01*
X95318028Y-81347213D01*
X95318034Y-81347219D01*
X95462781Y-81491966D01*
X95628390Y-81612287D01*
X95641793Y-81619116D01*
X95692589Y-81667088D01*
X95709500Y-81729601D01*
X95709500Y-88659902D01*
X95689815Y-88726941D01*
X95673181Y-88747583D01*
X94794202Y-89626561D01*
X94732879Y-89660046D01*
X94668203Y-89656811D01*
X94643584Y-89648812D01*
X94597952Y-89633985D01*
X94489086Y-89616742D01*
X94380222Y-89599500D01*
X94159778Y-89599500D01*
X94087201Y-89610995D01*
X93942047Y-89633985D01*
X93732396Y-89702103D01*
X93732393Y-89702104D01*
X93535974Y-89802187D01*
X93357641Y-89931752D01*
X93357636Y-89931756D01*
X93307075Y-89982317D01*
X93245752Y-90015801D01*
X93176060Y-90010816D01*
X93120127Y-89968945D01*
X93103213Y-89937968D01*
X93073354Y-89857913D01*
X93073350Y-89857906D01*
X92987190Y-89742812D01*
X92987187Y-89742809D01*
X92872093Y-89656649D01*
X92872086Y-89656645D01*
X92737379Y-89606403D01*
X92737372Y-89606401D01*
X92677844Y-89600000D01*
X91980000Y-89600000D01*
X91980000Y-90624722D01*
X91903694Y-90580667D01*
X91789244Y-90550000D01*
X91670756Y-90550000D01*
X91556306Y-90580667D01*
X91480000Y-90624722D01*
X91480000Y-89600000D01*
X90782155Y-89600000D01*
X90722627Y-89606401D01*
X90722620Y-89606403D01*
X90587913Y-89656645D01*
X90587906Y-89656649D01*
X90472812Y-89742809D01*
X90472809Y-89742812D01*
X90386649Y-89857906D01*
X90386645Y-89857913D01*
X90336403Y-89992620D01*
X90336401Y-89992627D01*
X90330000Y-90052155D01*
X86500000Y-90052155D01*
X86500000Y-80397648D01*
X87389500Y-80397648D01*
X87389500Y-80602351D01*
X87421522Y-80804534D01*
X87484781Y-80999223D01*
X87577715Y-81181613D01*
X87698028Y-81347213D01*
X87842786Y-81491971D01*
X87997749Y-81604556D01*
X88008390Y-81612287D01*
X88089499Y-81653614D01*
X88190776Y-81705218D01*
X88190778Y-81705218D01*
X88190781Y-81705220D01*
X88265818Y-81729601D01*
X88385465Y-81768477D01*
X88486557Y-81784488D01*
X88587648Y-81800500D01*
X88587649Y-81800500D01*
X88792351Y-81800500D01*
X88792352Y-81800500D01*
X88994534Y-81768477D01*
X89189219Y-81705220D01*
X89371610Y-81612287D01*
X89464590Y-81544732D01*
X89537213Y-81491971D01*
X89537215Y-81491968D01*
X89537219Y-81491966D01*
X89681966Y-81347219D01*
X89681968Y-81347215D01*
X89681971Y-81347213D01*
X89734732Y-81274590D01*
X89802287Y-81181610D01*
X89895220Y-80999219D01*
X89958477Y-80804534D01*
X89990500Y-80602352D01*
X89990500Y-80397648D01*
X89958477Y-80195466D01*
X89895220Y-80000781D01*
X89895218Y-80000778D01*
X89895218Y-80000776D01*
X89861503Y-79934607D01*
X89802287Y-79818390D01*
X89794556Y-79807749D01*
X89681971Y-79652786D01*
X89537213Y-79508028D01*
X89371610Y-79387712D01*
X89358200Y-79380879D01*
X89307406Y-79332903D01*
X89290500Y-79270397D01*
X89290500Y-74835096D01*
X89310185Y-74768057D01*
X89326814Y-74747420D01*
X90938322Y-73135912D01*
X90999642Y-73102429D01*
X91069334Y-73107413D01*
X91125267Y-73149285D01*
X91149684Y-73214749D01*
X91150000Y-73223595D01*
X91150000Y-73371246D01*
X91183242Y-73581127D01*
X91183242Y-73581130D01*
X91248904Y-73783217D01*
X91345375Y-73972550D01*
X91384728Y-74026716D01*
X92017037Y-73394408D01*
X92034075Y-73457993D01*
X92099901Y-73572007D01*
X92192993Y-73665099D01*
X92307007Y-73730925D01*
X92370590Y-73747962D01*
X91738282Y-74380269D01*
X91738282Y-74380270D01*
X91792449Y-74419624D01*
X91981782Y-74516095D01*
X92183870Y-74581757D01*
X92393754Y-74615000D01*
X92606246Y-74615000D01*
X92816127Y-74581757D01*
X92816130Y-74581757D01*
X93018217Y-74516095D01*
X93207554Y-74419622D01*
X93261716Y-74380270D01*
X93261717Y-74380270D01*
X92629408Y-73747962D01*
X92692993Y-73730925D01*
X92807007Y-73665099D01*
X92900099Y-73572007D01*
X92965925Y-73457993D01*
X92982962Y-73394408D01*
X93615270Y-74026717D01*
X93615270Y-74026716D01*
X93654622Y-73972554D01*
X93751095Y-73783217D01*
X93816757Y-73581130D01*
X93816757Y-73581127D01*
X93850000Y-73371246D01*
X93850000Y-73158753D01*
X93816757Y-72948872D01*
X93816757Y-72948869D01*
X93751095Y-72746782D01*
X93654624Y-72557449D01*
X93615270Y-72503282D01*
X93615269Y-72503282D01*
X92982962Y-73135590D01*
X92965925Y-73072007D01*
X92900099Y-72957993D01*
X92807007Y-72864901D01*
X92692993Y-72799075D01*
X92629408Y-72782037D01*
X93299627Y-72111818D01*
X93360950Y-72078333D01*
X93387308Y-72075499D01*
X93397871Y-72075499D01*
X93397872Y-72075499D01*
X93457483Y-72069091D01*
X93592331Y-72018796D01*
X93707546Y-71932546D01*
X93793796Y-71817331D01*
X93844091Y-71682483D01*
X93850500Y-71622873D01*
X93850499Y-69827128D01*
X93844091Y-69767517D01*
X93793796Y-69632669D01*
X93793795Y-69632668D01*
X93793793Y-69632664D01*
X93707547Y-69517455D01*
X93707544Y-69517452D01*
X93592335Y-69431206D01*
X93592328Y-69431202D01*
X93457482Y-69380908D01*
X93457483Y-69380908D01*
X93397883Y-69374501D01*
X93397881Y-69374500D01*
X93397873Y-69374500D01*
X93397864Y-69374500D01*
X91602129Y-69374500D01*
X91602123Y-69374501D01*
X91542516Y-69380908D01*
X91407671Y-69431202D01*
X91407664Y-69431206D01*
X91292455Y-69517452D01*
X91292452Y-69517455D01*
X91206206Y-69632664D01*
X91206202Y-69632671D01*
X91155908Y-69767517D01*
X91149501Y-69827116D01*
X91149501Y-69827123D01*
X91149500Y-69827135D01*
X91149500Y-71174901D01*
X91129815Y-71241940D01*
X91113181Y-71262582D01*
X88321286Y-74054478D01*
X88209481Y-74166282D01*
X88209479Y-74166285D01*
X88159361Y-74253094D01*
X88159359Y-74253096D01*
X88130425Y-74303209D01*
X88130424Y-74303210D01*
X88130423Y-74303215D01*
X88089499Y-74455943D01*
X88089499Y-74455945D01*
X88089499Y-74624046D01*
X88089500Y-74624059D01*
X88089500Y-79270397D01*
X88069815Y-79337436D01*
X88021800Y-79380879D01*
X88008389Y-79387712D01*
X87842786Y-79508028D01*
X87698028Y-79652786D01*
X87577715Y-79818386D01*
X87484781Y-80000776D01*
X87421522Y-80195465D01*
X87389500Y-80397648D01*
X86500000Y-80397648D01*
X86500000Y-65124000D01*
X86519685Y-65056961D01*
X86572489Y-65011206D01*
X86624000Y-65000000D01*
X99877759Y-65000000D01*
X99944798Y-65019685D01*
G37*
%TD.AperFunction*%
%TD*%
M02*
